<?xml version="1.0" standalone="no"?>
<!DOCTYPE svg PUBLIC "-//W3C//DTD SVG 20010904//EN"
 "http://www.w3.org/TR/2001/REC-SVG-20010904/DTD/svg10.dtd">
<svg version="1.0" xmlns="http://www.w3.org/2000/svg"
 width="700.000000pt" height="700.000000pt" viewBox="0 0 700.000000 700.000000"
 preserveAspectRatio="xMidYMid meet">
<metadata>
Created by potrace 1.11, written by Peter Selinger 2001-2013
</metadata>
<g transform="translate(0.000000,700.000000) scale(0.100000,-0.100000)"
fill="#000000" stroke="none">
<path d="M3477 6804 c-1 -1 -42 -5 -92 -9 -49 -4 -92 -8 -95 -10 -3 -1 -32 -6
-65 -10 -84 -10 -88 -11 -200 -35 -283 -59 -417 -100 -535 -164 -30 -16 -91
-49 -135 -73 -44 -24 -190 -98 -323 -163 -169 -83 -258 -133 -291 -162 -26
-24 -87 -71 -136 -105 -48 -35 -84 -63 -79 -63 4 0 -10 -19 -32 -42 -69 -72
-129 -160 -159 -233 -16 -38 -63 -135 -104 -215 -183 -355 -188 -366 -268
-639 -86 -295 -90 -320 -91 -518 0 -98 4 -203 8 -233 5 -30 11 -78 14 -106 9
-77 43 -244 76 -374 33 -129 125 -323 155 -328 27 -5 75 18 76 37 1 28 9 65
24 111 17 53 21 198 8 291 -5 36 -8 76 -8 90 9 144 50 327 90 394 51 88 132
130 248 129 71 -1 77 1 78 20 10 217 105 370 276 446 135 60 251 44 334 -45
52 -56 83 -90 99 -111 8 -10 30 -38 48 -60 17 -23 32 -45 32 -48 0 -4 8 -19
18 -33 9 -15 26 -48 37 -75 l21 -47 58 52 c82 73 123 140 191 311 47 117 120
231 170 265 137 92 330 38 396 -111 19 -45 23 -72 24 -173 1 -72 -4 -158 -14
-216 l-16 -96 65 35 c80 44 131 84 229 182 76 76 114 137 141 228 18 58 79
125 141 155 129 61 270 16 346 -111 26 -44 28 -54 27 -152 0 -84 -5 -114 -22
-152 -11 -27 -19 -48 -16 -48 2 0 35 16 72 37 131 71 333 214 403 286 l40 40
83 -6 c45 -3 107 -15 138 -27 31 -11 65 -23 75 -25 76 -15 139 -72 195 -175
34 -61 42 -91 53 -185 12 -96 23 -135 39 -135 20 0 84 -67 108 -113 25 -48 34
-191 18 -263 -12 -52 -14 -125 -11 -319 2 -77 1 -75 39 -173 18 -45 39 -106
46 -135 8 -28 23 -78 33 -109 l18 -57 77 93 c42 51 92 121 111 157 45 82 104
232 112 284 3 22 12 85 21 140 8 55 17 111 19 125 5 27 34 225 41 278 2 17 6
47 9 65 18 130 23 383 11 501 -9 79 -50 248 -86 351 -63 176 -187 399 -348
627 -186 261 -242 320 -487 515 -96 76 -106 81 -240 125 -146 48 -309 92 -480
128 -58 13 -116 32 -137 45 -68 45 -201 89 -358 120 -60 12 -353 27 -363 19z"/>
<path d="M2493 3649 c-125 -23 -211 -132 -201 -252 16 -196 229 -295 384 -179
63 49 97 109 98 176 0 72 -18 125 -59 173 -57 66 -140 97 -222 82z"/>
<path d="M4015 3641 c-89 -41 -145 -124 -145 -218 1 -213 238 -324 398 -187
103 88 114 225 27 340 -57 75 -190 105 -280 65z"/>
<path d="M5561 2864 c-12 -24 -21 -51 -21 -61 0 -9 -7 -46 -16 -82 -18 -71
-62 -146 -121 -208 -34 -35 -65 -79 -142 -203 -9 -14 -26 -45 -39 -70 -66
-124 -86 -157 -113 -191 -16 -20 -29 -39 -29 -42 0 -3 -13 -25 -28 -49 -15
-24 -37 -60 -47 -82 -22 -43 -73 -99 -125 -136 -19 -14 -62 -51 -96 -82 -55
-53 -64 -58 -110 -59 -95 -3 -256 60 -348 138 -41 34 -212 119 -331 163 -121
46 -196 62 -295 65 -41 1 -97 5 -123 10 -36 5 -59 3 -93 -10 -45 -17 -73 -16
-144 3 -25 6 -51 5 -83 -3 -26 -6 -49 -10 -51 -8 -6 7 -124 5 -171 -2 -156
-23 -388 -147 -462 -248 -62 -84 -144 -139 -229 -155 -49 -8 -52 -7 -97 27
-25 20 -64 48 -85 62 -23 16 -50 48 -67 80 -38 73 -74 125 -129 182 -25 26
-53 62 -62 80 -50 96 -273 390 -450 594 -44 50 -50 60 -113 191 -28 56 -55
102 -61 102 -26 0 -79 -30 -90 -51 -12 -21 -10 -83 4 -159 3 -14 7 -44 10 -68
4 -43 14 -86 76 -332 17 -69 33 -134 35 -144 34 -159 164 -550 219 -654 8 -15
38 -76 66 -137 69 -144 126 -245 216 -381 99 -151 153 -216 301 -367 134 -136
178 -171 270 -215 69 -33 127 -70 168 -107 113 -101 296 -190 430 -210 23 -3
52 -8 65 -10 24 -5 346 -16 520 -18 124 -1 354 18 465 39 10 2 36 6 58 9 52 8
181 52 242 83 58 29 149 89 186 123 57 53 162 144 182 158 12 8 27 20 34 26 6
5 46 35 89 65 115 81 162 127 216 210 27 41 53 82 58 90 117 176 157 238 169
259 8 14 20 31 27 36 23 18 101 178 127 260 14 44 71 213 127 375 56 162 118
345 139 405 l36 110 0 220 c1 236 0 242 -57 351 -19 36 -36 55 -57 62 -28 10
-30 9 -50 -34z m-1891 -1268 c41 -3 100 -11 130 -17 30 -6 62 -13 70 -14 8 -2
16 -4 18 -4 1 -1 3 -1 5 0 6 2 168 -61 217 -85 123 -58 180 -141 180 -258 0
-146 -97 -251 -243 -265 -55 -5 -93 5 -212 54 -92 39 -184 54 -330 57 -157 2
-235 -7 -322 -37 -94 -33 -221 -59 -264 -54 -132 16 -241 144 -234 277 6 113
83 212 190 244 33 9 101 30 150 46 129 42 174 50 310 57 66 3 121 6 122 7 4 3
145 -2 213 -8z"/>
</g>
</svg>
