<svg xmlns="http://www.w3.org/2000/svg" viewBox="0 0 43.49 54.62" width="20px" height="30px">
  <title>htmlacademy</title>
  <g>
    <path d="M1.4,3.5,21.8,1.4,42.1,3.5V41L21.8,53,1.4,41Z" style="fill: none;stroke: #000;stroke-width: 2.7909998893737793px"/>
    <path d="M1.7,20.9,21.1,9.6,42,20.9v1.2L21.8,34,1.7,22.1Z" style="fill: none;stroke: #000;stroke-width: 2.056999921798706px"/>
    <polygon points="21.8 21.1 31.3 27 29.7 27.9 21.8 23.1 21.8 25.3 28 29 26.5 29.9 21.8 27.1 21.8 29 24.7 30.9 21.8 32.8 21.8 37.1 8.7 29.5 8.7 31.4 21.8 39.1 21.8 41.2 8.7 33.3 8.7 35.5 21.8 43.1 34.7 35.3 34.7 26.9 21.8 19 21.8 21.1" style="fill: #000"/>
  </g>
</svg>