<svg xmlns="http://www.w3.org/2000/svg" xmlns:xlink="http://www.w3.org/1999/xlink" width="17.813" height="14.187" viewBox="0 0 17.813 14.187">
  <metadata><?xpacket begin="﻿" id="W5M0MpCehiHzreSzNTczkc9d"?>
<x:xmpmeta xmlns:x="adobe:ns:meta/" x:xmptk="Adobe XMP Core 5.6-c138 79.159824, 2016/09/14-01:09:01        ">
   <rdf:RDF xmlns:rdf="http://www.w3.org/1999/02/22-rdf-syntax-ns#">
      <rdf:Description rdf:about=""/>
   </rdf:RDF>
</x:xmpmeta>
                                                                                                    
                                                                                                    
                                                                                                    
                                                                                                    
                                                                                                    
                                                                                                    
                                                                                                    
                                                                                                    
                                                                                                    
                                                                                                    
                                                                                                    
                                                                                                    
                                                                                                    
                                                                                                    
                                                                                                    
                                                                                                    
                                                                                                    
                                                                                                    
                                                                                                    
                                                                                                    
                           
<?xpacket end="w"?></metadata>
<defs>
    <style>
      .cls-1 {
        fill-rule: evenodd;
        filter: url(#filter);
      }
    </style>
    <filter id="filter" x="285.531" y="713.813" width="17.813" height="14.187" filterUnits="userSpaceOnUse">
      <feFlood result="flood" flood-color="#fff"/>
      <feComposite result="composite" operator="in" in2="SourceGraphic"/>
      <feBlend result="blend" in2="SourceGraphic"/>
    </filter>
  </defs>
  <path id="twitter" class="cls-1" d="M303.353,715.482a7.36,7.36,0,0,1-2.1.565,3.6,3.6,0,0,0,1.606-1.983,7.4,7.4,0,0,1-2.32.87,3.68,3.68,0,0,0-2.667-1.132,3.621,3.621,0,0,0-3.654,3.585,3.545,3.545,0,0,0,.095.816,10.443,10.443,0,0,1-7.531-3.744,3.515,3.515,0,0,0-.494,1.8,3.565,3.565,0,0,0,1.625,2.984,3.692,3.692,0,0,1-1.655-.448v0.044a3.6,3.6,0,0,0,2.931,3.515,3.733,3.733,0,0,1-1.65.062,3.65,3.65,0,0,0,3.413,2.49,7.431,7.431,0,0,1-4.538,1.534,7.575,7.575,0,0,1-.871-0.05,10.484,10.484,0,0,0,5.6,1.611,10.222,10.222,0,0,0,10.4-10.2c0-.155,0-0.31-0.011-0.464A7.341,7.341,0,0,0,303.353,715.482Z" transform="translate(-285.531 -713.813)"/>
</svg>
